#N canvas 243 72 786 620 10;
#X declare -lib mrpeach;
#X obj 122 251 output~;
#X obj 341 50 bng 15 250 50 0 empty empty empty 17 7 0 10 -262144 -1
-1;
#X obj 490 18 soundfiler;
#X floatatom 491 47 5 0 0 0 - - -;
#X obj 491 -45 loadbang;
#N canvas 0 0 450 300 (subpatch) 0;
#X array clash 12800 float 2;
#X coords 0 1 12800 -1 200 140 1 0 0;
#X restore 458 132 graph;
#X obj 105 -172 import mrpeach;
#X obj 89 -119 udpreceive 9001;
#X obj 91 -93 unpackOSC;
#X obj 91 -58 routeOSC /test;
#X obj 314 5 unpack i;
#X obj 89 4 unpack f;
#X obj 169 14 print;
#X obj 328 83 tabplay~ clash;
#X msg 491 -12 read -resize clash.wav clash;
#X obj 20 127 phasor~ 30;
#X obj 98 124 osc~ 85;
#X msg 225 96 \$1 50;
#X obj 92 -29 routeOSC /hum /clash;
#X text 13 106 Square Wave;
#X text 95 102 Sine Wave;
#X obj 226 125 line~;
#X obj 55 199 +~;
#X obj 103 163 *~;
#X obj 28 170 *~ 0.25;
#X text 314 -155 Lightsaber app Uses OSC for communication with OpenCV
Python module -Hum changes amplitude based on velocity -Bang occurs
when velocity is above a certain threshold;
#X text 307 -20 Clash command;
#X text 0 103 comment;
#X text 12 53 Low pass for amplitude change (prevents clicks) see http://goo.gl/oNI1R
;
#X connect 1 0 13 0;
#X connect 2 0 3 0;
#X connect 4 0 14 0;
#X connect 7 0 8 0;
#X connect 8 0 9 0;
#X connect 9 0 18 0;
#X connect 10 0 13 0;
#X connect 11 0 12 0;
#X connect 11 0 17 0;
#X connect 13 0 0 1;
#X connect 14 0 2 0;
#X connect 15 0 24 0;
#X connect 16 0 23 0;
#X connect 17 0 21 0;
#X connect 18 0 11 0;
#X connect 18 1 10 0;
#X connect 21 0 23 1;
#X connect 22 0 0 0;
#X connect 22 0 0 1;
#X connect 23 0 22 1;
#X connect 24 0 22 0;
